<svg width="600" height="1000" viewBox="0 0 600 1000" fill="none" xmlns="http://www.w3.org/2000/svg">
  <defs>
    <style>
      .thick-stroke { stroke: black; stroke-width: 4; stroke-linecap: square; stroke-linejoin: miter; }
      .med-stroke   { stroke: black; stroke-width: 3; stroke-linecap: square; }
      .thin-stroke  { stroke: black; stroke-width: 1.5; stroke-linecap: square; }
    </style>
  </defs>

  <circle cx="300" cy="80" r="45" class="thick-stroke" />
  <circle cx="300" cy="80" r="35" class="thin-stroke" />
  
  <path d="M 255 80 L 100 80 L 50 130" class="thick-stroke" fill="none"/>
  <path d="M 252 88 L 105 88 L 62 131" class="thin-stroke" fill="none"/>
  
  <path d="M 345 80 L 500 80 L 550 130" class="thick-stroke" fill="none"/>
  <path d="M 348 88 L 495 88 L 538 131" class="thin-stroke" fill="none"/>

  <line x1="50" y1="130" x2="50" y2="850" class="thick-stroke" />
  <line x1="550" y1="130" x2="550" y2="850" class="thick-stroke" />
  
  <line x1="62" y1="131" x2="62" y2="845" class="thin-stroke" />
  <line x1="538" y1="131" x2="538" y2="845" class="thin-stroke" />

  <path d="M 62 160 L 62 140 L 82 140" class="med-stroke" fill="none"/>
  <path d="M 538 160 L 538 140 L 518 140" class="med-stroke" fill="none"/>
  
  
  <line x1="40" y1="850" x2="560" y2="850" class="thick-stroke" />
  <line x1="55" y1="860" x2="545" y2="860" class="thin-stroke" />
  
  <rect x="40" y="850" width="520" height="110" class="thick-stroke" />
  
  <rect x="55" y="860" width="490" height="90" class="thin-stroke" />
  
  <path d="M 40 940 L 55 940 L 55 950" class="thick-stroke" fill="none"/>
  <path d="M 40 870 L 55 870 L 55 860" class="thick-stroke" fill="none"/>
  
  <path d="M 560 940 L 545 940 L 545 950" class="thick-stroke" fill="none"/>
  <path d="M 560 870 L 545 870 L 545 860" class="thick-stroke" fill="none"/>

  <line x1="65" y1="930" x2="535" y2="930" class="thin-stroke" />

</svg>
