<svg width="400" height="650" viewBox="0 0 400 650" fill="none" xmlns="http://www.w3.org/2000/svg">
  <defs>
    <style>
      .border-lines { stroke: black; stroke-width: 2; stroke-linecap: square; }
      .thin-lines { stroke: black; stroke-width: 1; }
    </style>
  </defs>

  <circle cx="200" cy="45" r="28" class="border-lines" /> 
  <circle cx="200" cy="45" r="22" class="thin-lines" />

  <path d="M 172 45 L 45 45 L 25 65 L 25 550" class="border-lines" />
  <path d="M 228 45 L 355 45 L 375 65 L 375 550" class="border-lines" />

  <path d="M 175 53 L 53 53 L 33 73 L 33 542" class="thin-lines" />
  <path d="M 225 53 L 347 53 L 367 73 L 367 542" class="thin-lines" />

  <line x1="25" y1="65" x2="33" y2="73" class="thin-lines" />
  <line x1="375" y1="65" x2="367" y2="73" class="thin-lines" />

  <line x1="25" y1="550" x2="375" y2="550" class="border-lines" />
  <line x1="33" y1="542" x2="367" y2="542" class="thin-lines" />
  
  <line x1="25" y1="550" x2="25" y2="615" class="border-lines" />
  <line x1="375" y1="550" x2="375" y2="615" class="border-lines" />

  <line x1="25" y1="615" x2="375" y2="615" class="border-lines" />
  
  <rect x="33" y="558" width="334" height="50" class="thin-lines" />
  
  <path d="M 25 605 L 33 605 L 33 558" class="thin-lines" fill="none" />
  <path d="M 375 605 L 367 605 L 367 558" class="thin-lines" fill="none" />

</svg>
